<svg width="33" height="33" viewBox="0 0 33 33" fill="none" xmlns="http://www.w3.org/2000/svg">
<path d="M28.814 11.0839L16.0319 23.0546L13.5142 20.5174L19.6793 14.3043L20.1312 12.9381L18.7756 13.3935L12.6105 19.6065L10.0928 17.0693L21.9711 4.1877L29.04 3.96L28.814 11.0839ZM16.2902 25.3317L7.63965 16.6139C7.18776 16.1584 6.47764 16.1584 6.02575 16.6139L5.38019 17.2644C4.9283 17.7198 4.9283 18.4355 5.38019 18.8909L8.4466 21.9812L4.3473 26.1124C3.83085 26.6328 3.83085 27.5111 4.3473 28.0316L4.96058 28.6496C5.47703 29.1701 6.34853 29.1701 6.86498 28.6496L10.932 24.551L13.9984 27.6412C14.4503 28.0967 15.1604 28.0967 15.6123 27.6412L16.2579 26.9907C16.742 26.5027 16.742 25.7871 16.2902 25.3317Z" fill="#E6DEC1"/>
</svg>
