<svg width="25" height="25" viewBox="0 0 25 25" fill="none" xmlns="http://www.w3.org/2000/svg">
<path fill-rule="evenodd" clip-rule="evenodd" d="M20.6653 16.6271C21.5153 15.1108 22 13.362 22 11.5C22 5.70101 17.299 1 11.5 1C5.70101 1 1 5.70101 1 11.5C1 17.299 5.70101 22 11.5 22C13.7083 22 15.7574 21.3183 17.4482 20.1538L21.3533 24.0589C21.7277 24.4333 22.3925 24.4237 22.7778 24.0383L24.7046 22.1116C25.09 21.7262 25.0995 21.0614 24.7251 20.687L20.6653 16.6271ZM7.825 11.5C7.825 13.5296 9.47035 15.175 11.5 15.175C13.5296 15.175 15.175 13.5296 15.175 11.5C15.175 9.47035 13.5296 7.825 11.5 7.825C9.47035 7.825 7.825 9.47035 7.825 11.5Z" fill="#CAC2A4"/>
</svg>
