<svg width="251" height="114" viewBox="0 0 251 114" fill="none" xmlns="http://www.w3.org/2000/svg">
<path d="M227.317 78.376V109.032L231.925 113H213.237L217.781 109.032V78.376L213.237 74.408H231.925L227.317 78.376ZM235.637 90.984L244.085 78.376L249.717 74.472H234.997L237.941 77.864L227.253 93.736L236.469 109.608L233.717 113H250.549L245.877 109.032L235.637 90.984Z" fill="#CAC2A4"/>
<path d="M195.447 73.384C205.495 73.384 212.343 81.96 212.343 93.736C212.343 105.448 205.495 113.96 195.447 113.96C185.271 113.96 178.487 105.448 178.487 93.736C178.487 81.96 185.271 73.384 195.447 73.384ZM195.447 109.672C200.183 109.672 202.807 105 202.807 93.608C202.807 82.28 200.183 77.608 195.447 77.608C190.647 77.608 188.023 82.28 188.023 93.608C188.023 105 190.647 109.672 195.447 109.672ZM191.607 93.864L195.447 87.784L199.223 93.864L195.447 99.688L191.607 93.864Z" fill="#CAC2A4"/>
<path d="M158.822 73.384C168.87 73.384 175.718 81.96 175.718 93.736C175.718 105.448 168.87 113.96 158.822 113.96C148.646 113.96 141.862 105.448 141.862 93.736C141.862 81.96 148.646 73.384 158.822 73.384ZM158.822 109.672C163.558 109.672 166.182 105 166.182 93.608C166.182 82.28 163.558 77.608 158.822 77.608C154.022 77.608 151.398 82.28 151.398 93.608C151.398 105 154.022 109.672 158.822 109.672ZM154.982 93.864L158.822 87.784L162.598 93.864L158.822 99.688L154.982 93.864Z" fill="#CAC2A4"/>
<path d="M131.43 93.096C135.782 93.864 139.814 96.936 139.814 102.376C139.814 109.416 135.014 113 122.854 113H107.174L111.718 109.032V78.376L107.174 74.408H122.47C132.838 74.408 138.15 77.992 138.15 84.264C138.15 89 135.782 91.88 131.43 93.096ZM122.47 78.632H121.318V91.432H122.662C126.822 91.432 129.638 89.192 129.638 84.904C129.638 80.744 127.334 78.632 122.47 78.632ZM122.598 108.776C128.614 108.776 131.494 106.856 131.494 101.992C131.494 97.704 128.422 95.208 122.79 95.208H121.318V108.776H122.598Z" fill="#CAC2A4"/>
<path d="M107.218 91.304L102.418 95.272V113.96L98.7698 112.232C98.7698 112.232 95.9538 113.96 90.7058 113.96C79.4418 113.96 73.3618 106.344 73.3618 93.736C73.3618 80.424 79.2498 73.384 90.7058 73.384C95.1218 73.384 98.7058 75.624 98.7058 75.624L102.418 73.32V89.256C100.306 85.288 96.3378 77.608 90.7698 77.608C85.2018 77.608 82.9618 82.984 82.9618 93.608C82.9618 104.872 85.4578 109.672 90.1938 109.672C92.4978 109.672 93.8418 108.456 93.8418 108.456V95.208L89.2338 91.304H107.218Z" fill="#CAC2A4"/>
<path d="M53.6968 73.384C63.7448 73.384 70.5928 81.96 70.5928 93.736C70.5928 105.448 63.7448 113.96 53.6968 113.96C43.5208 113.96 36.7368 105.448 36.7368 93.736C36.7368 81.96 43.5208 73.384 53.6968 73.384ZM53.6968 109.672C58.4328 109.672 61.0568 105 61.0568 93.608C61.0568 82.28 58.4328 77.608 53.6968 77.608C48.8968 77.608 46.2728 82.28 46.2728 93.608C46.2728 105 48.8968 109.672 53.6968 109.672ZM49.8568 93.864L53.6968 87.784L57.4728 93.864L53.6968 99.688L49.8568 93.864Z" fill="#CAC2A4"/>
<path d="M25.0733 107.816L33.3933 85.928V113H0.0493164L5.80932 108.584V66.088L0.0493164 61.8H23.1533L17.4573 66.088V107.816H25.0733ZM11.5693 66.088L10.0973 79.528L11.5693 82.024L13.1053 79.528L11.5693 66.088ZM11.5693 84.968L9.96932 87.336L11.5693 89.64L13.2333 87.336L11.5693 84.968ZM13.1053 95.08L11.5693 92.584L10.0973 95.08L11.5693 108.648L13.1053 95.08Z" fill="#CAC2A4"/>
<path d="M191.449 52L194.713 48.8L192.793 40.096H185.177L182.873 48.672L187.097 52H172.569L177.369 48.032L186.393 17.376L181.849 13.408H195.673L204.313 48.032L208.665 52H191.449ZM186.393 35.488H191.769L189.273 24.608L186.393 35.488Z" fill="#CAC2A4"/>
<path d="M157.153 13.408C168.161 13.408 176.097 21.28 176.097 32.736C176.097 44.32 168.033 52 157.857 52H143.393L147.937 48.032V17.376L143.393 13.408H157.153ZM157.473 47.904C160.161 47.904 167.009 43.744 167.009 32.736C167.009 21.664 160.865 17.44 157.473 17.44V47.904Z" fill="#CAC2A4"/>
<path d="M133.483 48.032L140.267 30.752V52H113.643L118.187 48.032V17.376L113.643 13.408H132.331L127.723 17.376V48.032H133.483Z" fill="#CAC2A4"/>
<path d="M104.525 18.016H96.9731V30.112H100.749L104.653 25.12V39.52L100.749 34.592H96.9731V47.392H104.973L110.477 34.592V52H82.8931L87.4371 48.032V17.376L82.8931 13.408H110.477V27.936L104.525 18.016Z" fill="#CAC2A4"/>
<path d="M72.7676 47.008L82.6236 33.184L79.2956 52H43.4556L67.2636 6.11199H52.3516L43.4556 15.776L46.9116 0.799988H82.3676L58.2396 47.008H72.7676ZM72.8316 7.77599L65.1516 18.912L65.2796 21.728L67.7756 20.32L72.8316 7.77599ZM63.8716 24.352L61.2476 25.696L61.6316 28.512L64.1916 27.296L63.8716 24.352ZM57.6636 32.544L52.6076 45.152L60.4156 33.952L60.2236 31.136L57.6636 32.544Z" fill="#CAC2A4"/>
</svg>
